<svg xmlns="http://www.w3.org/2000/svg" xmlns:xlink="http://www.w3.org/1999/xlink" id="Layer_1" x="0px" y="0px" viewBox="0 0 999.9 187.6" style="enable-background:new 0 0 999.9 187.6;" xml:space="preserve">
    <style type="text/css">
        .st0{fill:#696B70;}
        .st1{fill:#0061FC;}
        .st2{fill:#36D663;}
    </style>
    <title>livongo-logo</title>
    <g id="Styles">
        <g id="Dashboard-Desktop" transform="translate(-27.000000, -12.000000)">
            <g id="Sidebar">
                <g id="branding">
                    <g id="livongo-logo" transform="translate(27.000000, 12.000000)">
                        <g id="logo-livongo">
                            <g id="Group-42" transform="translate(0.000000, 0.334527)">
                                <path id="Fill-5" class="st0" d="M535.2,31.8c30.9,0,55.6,21.4,55.6,53.4s-24.8,53.4-55.6,53.4s-55.5-21.4-55.5-53.4         S504.3,31.8,535.2,31.8 M535.2,115.7c18.7,0,30-14.6,30-30.5s-11.3-30.5-30-30.5s-30,14.6-30,30.5S516.5,115.7,535.2,115.7"/>
                                <path id="Fill-7" class="st0" d="M608.4,34.4h24.3v16.3h0.4c4.7-10.2,14.3-18.9,31.3-18.9c27.4,0,37.2,19.3,37.2,40V136H676         V84.6c0-11.2-0.8-29.9-18.7-29.9c-16.8,0-23.4,12.3-23.4,25.8V136h-25.6V34.4H608.4z"/>
                                <path id="Fill-9" class="st0" d="M829.6,34.4v92.5c0,36.6-17.9,60.4-57.7,60.4c-19,0-36.8-6.2-49.7-18.5l14.4-18.5         c10.2,9.3,20.9,14.2,35.1,14.2c24.7,0,32.4-14.4,32.4-34.6v-7.4h-0.4c-7.4,10-20.7,14.8-33.4,14.8         c-30.6,0-50.9-23.3-50.9-52.1c0-30.1,18.9-53.4,50.4-53.4c14.3,0,27.7,5.5,35.1,17.8h0.4V34.4H829.6z M744.9,85         c0,16.1,12.8,29.4,30,29.4c18.9,0,30.4-12.9,30.4-29.9c0-17.6-11.7-29.9-30.2-29.9C757.3,54.7,744.9,67,744.9,85L744.9,85z"/>
                                <path id="Fill-11" class="st0" d="M902.4,31.8c30.9,0,55.6,21.4,55.6,53.4s-24.7,53.4-55.6,53.4c-30.8,0-55.5-21.4-55.5-53.4         S871.5,31.8,902.4,31.8 M902.4,115.7c18.7,0,30-14.6,30-30.5s-11.3-30.5-30-30.5s-30,14.6-30,30.5S883.7,115.7,902.4,115.7"/>
                                <polygon id="Fill-13" class="st1" points="98.6,101.5 34.8,101.5 34.8,37.9 0,3.3 0,136.1 133.4,136.1        "/>
                                <polygon id="Fill-15" class="st2" points="136.9,97.5 136.9,-0.2 38.7,-0.2        "/>
                                <g id="Group-19" transform="translate(177.772294, 3.557312)">
                                    <g id="Clip-18">
                                    </g>
                                    <path id="Fill-17" class="st0" d="M783.5,36c0-2.7,0.5-5.2,1.5-7.5s2.4-4.4,4.2-6.1c1.7-1.7,3.8-3.1,6.1-4.2          c2.4-1,4.9-1.5,7.5-1.5c2.7,0,5.2,0.5,7.5,1.5s4.4,2.4,6.1,4.2c1.8,1.8,3.1,3.8,4.2,6.1c1,2.3,1.5,4.8,1.5,7.5          c0,2.7-0.5,5.2-1.5,7.5s-2.4,4.4-4.2,6.1c-1.8,1.7-3.8,3.1-6.1,4.1c-2.4,1-4.9,1.5-7.5,1.5c-2.7,0-5.2-0.5-7.5-1.5          s-4.4-2.4-6.1-4.1c-1.8-1.8-3.1-3.8-4.2-6.1C784,41.1,783.5,38.6,783.5,36L783.5,36z M786.9,36c0,2.2,0.4,4.2,1.3,6.2          c0.8,1.9,2,3.6,3.4,5.1c1.5,1.4,3.1,2.5,5.1,3.4c1.9,0.8,4,1.2,6.2,1.2s4.3-0.4,6.2-1.2s3.6-2,5.1-3.4          c1.4-1.4,2.6-3.1,3.4-5.1c0.8-1.9,1.3-4,1.3-6.2s-0.4-4.2-1.3-6.2c-0.8-1.9-2-3.6-3.4-5.1c-1.4-1.4-3.1-2.5-5.1-3.4          c-2-0.8-4-1.2-6.2-1.2s-4.3,0.4-6.2,1.2c-1.9,0.8-3.6,2-5.1,3.4c-1.4,1.4-2.6,3.1-3.4,5.1C787.3,31.7,786.9,33.8,786.9,36          L786.9,36z M795.4,24.8h8.5c2.7,0,4.6,0.6,5.9,1.7c1.3,1.1,1.9,2.8,1.9,4.9c0,1.9-0.5,3.4-1.5,4.4s-2.3,1.5-3.8,1.7l5.7,9.3          h-4.3l-5.5-9h-3v9h-4.1v-22H795.4z M799.5,34.4h3c0.6,0,1.3,0,1.9-0.1c0.6-0.1,1.2-0.2,1.7-0.4s0.9-0.5,1.2-0.9          s0.5-1,0.5-1.7s-0.2-1.3-0.5-1.7c-0.3-0.4-0.7-0.7-1.2-0.9c-0.5-0.2-1.1-0.3-1.7-0.4c-0.6,0-1.3-0.1-1.9-0.1h-3V34.4z"/>
                                </g>
                                <polygon id="Fill-1" class="st0" points="326.5,20.1 352,20.1 352,-0.3 326.5,-0.3        "/>
                                <polygon id="Fill-2" class="st0" points="212.2,-0.3 212.2,136 308.6,136 308.6,111.9 239,111.9 239,-0.3        "/>
                                <polygon id="Fill-3" class="st0" points="326.5,136 352,136 352,34.4 326.5,34.4        "/>
                                <polygon id="Fill-4" class="st0" points="368.2,34.4 396,34.4 423.3,105.5 423.7,105.5 451.2,34.4 477.3,34.4 437.1,136          409.9,136        "/>
                            </g>
                        </g>
                    </g>
                </g>
            </g>
        </g>
    </g>
</svg>
